<?xml version="1.0" standalone="no"?>
<!DOCTYPE svg PUBLIC "-//W3C//DTD SVG 20010904//EN"
 "http://www.w3.org/TR/2001/REC-SVG-20010904/DTD/svg10.dtd">
<svg version="1.0" xmlns="http://www.w3.org/2000/svg"
 width="1080.000000pt" height="1080.000000pt" viewBox="0 0 1080.000000 1080.000000"
 preserveAspectRatio="xMidYMid meet">
<metadata>
Created by potrace 1.14, written by Peter Selinger 2001-2017
</metadata>
<g transform="translate(0.000000,1080.000000) scale(0.100000,-0.100000)"
fill="#000000" stroke="none">
<path d="M7979 10106 c-2 -2 -60 -7 -129 -11 -69 -4 -136 -8 -150 -10 -14 -3
-43 -7 -65 -10 -45 -6 -105 -18 -215 -41 -38 -9 -44 -10 -62 -19 -10 -4 -29
-8 -43 -9 -14 0 -25 -4 -25 -7 0 -3 -22 -12 -50 -19 -27 -7 -50 -18 -50 -22 0
-5 -4 -7 -9 -4 -5 4 -43 -10 -85 -29 -42 -19 -81 -35 -86 -35 -6 0 -10 -4 -10
-9 0 -6 -9 -8 -20 -6 -11 2 -20 1 -20 -3 0 -4 -26 -21 -57 -37 -32 -16 -81
-44 -109 -62 -29 -18 -54 -29 -58 -26 -3 4 -6 1 -6 -5 0 -7 -16 -20 -35 -29
-19 -9 -35 -20 -35 -25 0 -4 -11 -13 -24 -20 -55 -30 -161 -123 -291 -254
-116 -118 -177 -184 -169 -184 2 0 -5 -10 -16 -22 -12 -13 -40 -51 -62 -85
-23 -35 -45 -63 -49 -63 -5 0 -8 -3 -8 -7 3 -18 -2 -30 -18 -49 -15 -15 -51
-81 -58 -104 -1 -3 -18 -40 -38 -82 -21 -42 -37 -81 -37 -87 0 -6 -5 -11 -11
-11 -5 0 -8 -4 -5 -9 4 -5 -3 -30 -14 -55 -11 -26 -19 -47 -19 -49 0 -1 -5
-15 -11 -31 -6 -16 -8 -31 -6 -34 3 -2 -1 -16 -8 -31 -7 -14 -12 -36 -11 -48
1 -13 -2 -23 -5 -23 -4 0 -11 -21 -14 -47 -4 -27 -9 -57 -12 -68 -2 -11 -6
-36 -8 -55 -3 -19 -7 -50 -10 -67 -3 -22 -1 -33 7 -33 8 0 8 -3 2 -8 -14 -10
-17 -25 -22 -142 -7 -134 -2 -355 7 -355 1 0 3 -20 5 -45 2 -25 4 -45 5 -45 2
0 9 -33 13 -70 3 -16 7 -37 11 -45 3 -8 7 -24 9 -35 2 -11 6 -27 9 -35 3 -8
16 -44 28 -80 23 -71 99 -231 113 -241 5 -3 8 -9 7 -13 -1 -4 13 -35 31 -69
18 -34 32 -65 31 -69 -1 -5 2 -8 7 -8 5 0 22 -27 37 -60 15 -33 31 -60 36 -60
4 0 8 -7 8 -16 0 -8 7 -22 15 -31 8 -8 13 -19 10 -24 -4 -5 -1 -9 4 -9 6 0 11
-6 11 -13 0 -8 21 -54 46 -103 26 -49 52 -99 58 -111 6 -13 14 -23 19 -23 4 0
7 -6 7 -12 0 -7 14 -31 30 -52 17 -22 30 -43 30 -47 0 -8 -31 0 -40 10 -10 12
-50 31 -64 31 -8 0 -16 4 -18 9 -1 5 -10 11 -18 13 -8 2 -25 13 -39 25 -14 12
-28 20 -33 17 -4 -3 -1 13 7 36 l14 40 -43 0 c-36 0 -47 5 -69 31 -21 25 -24
36 -17 60 7 22 5 29 -5 29 -8 0 -19 18 -25 43 -19 78 -33 117 -42 117 -4 0 -8
7 -8 15 0 8 -5 15 -11 15 -8 0 -8 5 1 15 8 9 8 15 2 15 -6 0 -25 13 -43 30
-18 16 -36 27 -41 24 -4 -3 -8 -1 -8 4 0 6 -8 9 -17 8 -14 -1 -18 7 -18 41 0
24 -3 43 -7 43 -4 0 -5 7 -2 15 7 18 -36 145 -48 145 -5 0 -7 4 -4 9 10 16
-113 133 -163 157 -48 22 -107 39 -114 32 -10 -9 -34 25 -30 42 3 11 2 28 -2
37 -5 10 -9 25 -11 35 -10 47 -122 187 -138 171 -3 -3 -6 -1 -6 5 0 13 -80 57
-80 45 0 -5 -5 0 -11 10 -6 9 -15 14 -21 11 -6 -4 -8 -2 -4 4 3 6 2 13 -4 17
-5 3 -8 19 -5 34 3 19 -2 34 -15 48 -10 12 -16 24 -13 27 4 3 0 6 -7 6 -7 0
-11 3 -7 6 11 11 -78 101 -95 96 -5 -1 -7 2 -4 6 3 5 -8 23 -24 41 -17 17 -30
33 -30 36 0 7 -19 31 -42 53 -10 9 -18 22 -18 30 0 7 -4 10 -10 7 -5 -3 -10 1
-10 9 0 9 -4 16 -10 16 -5 0 -10 7 -10 15 0 8 -4 15 -10 15 -5 0 -10 5 -10 11
0 14 -56 69 -70 69 -5 0 -10 8 -11 18 0 9 -3 12 -5 5 -4 -8 -11 -7 -24 4 -10
9 -16 21 -13 26 3 6 1 7 -5 3 -7 -4 -12 -2 -12 3 0 6 -9 11 -20 11 -19 0 -23
9 -23 53 0 9 -4 17 -9 17 -6 0 -8 7 -4 15 3 8 1 15 -5 15 -6 0 -8 9 -4 20 4
12 2 20 -5 20 -6 0 -8 5 -5 10 3 6 -1 10 -9 10 -9 0 -15 3 -15 8 3 16 -1 35
-7 30 -3 -3 -17 5 -31 18 -14 13 -29 21 -33 19 -5 -3 -10 0 -12 6 -8 24 -208
32 -208 8 0 -4 -11 -10 -25 -13 -13 -3 -34 -16 -46 -29 -12 -12 -18 -16 -14
-8 5 10 4 12 -4 7 -6 -4 -9 -11 -6 -16 3 -5 1 -11 -5 -15 -6 -4 -7 -12 -4 -18
4 -7 4 -9 -1 -5 -11 11 -38 -29 -29 -44 4 -6 3 -8 -4 -4 -11 7 -13 -2 -12 -64
0 -19 0 -45 0 -57 0 -13 5 -23 11 -23 5 0 8 -4 5 -9 -3 -5 17 -32 44 -60 27
-28 45 -51 41 -51 -11 0 -35 -60 -32 -79 1 -7 -2 -10 -9 -6 -7 4 -10 1 -8 -6
1 -8 -11 -41 -27 -74 -16 -33 -28 -69 -27 -81 2 -12 -8 -33 -22 -49 -14 -15
-23 -31 -20 -36 3 -5 1 -9 -4 -9 -5 0 -12 -18 -16 -40 -3 -22 -15 -49 -26 -60
-11 -11 -21 -23 -21 -27 -6 -36 -30 -83 -61 -123 -16 -19 -28 -40 -28 -48 0
-15 -39 -94 -50 -102 -4 -3 -16 -31 -28 -63 -18 -50 -18 -59 -6 -64 10 -4 -7
-17 -48 -37 -80 -40 -112 -63 -134 -101 -36 -59 -49 -170 -23 -201 5 -6 6 -13
3 -16 -7 -8 22 -65 47 -91 10 -12 19 -23 19 -26 0 -3 -20 -14 -45 -24 -25 -11
-45 -24 -45 -30 0 -6 -3 -7 -6 -4 -12 12 -84 -98 -84 -129 0 -17 -27 -25 -53
-15 -56 22 -170 29 -243 15 -62 -11 -120 -42 -167 -90 -30 -30 -53 -44 -71
-44 -25 0 -26 2 -26 60 l0 60 -165 0 c-150 0 -165 -2 -166 -17 0 -10 -1 -89
-1 -175 l-1 -157 -24 45 c-23 44 -39 61 -109 125 -16 14 -47 45 -69 68 -78 83
-228 132 -400 132 -116 1 -172 -7 -270 -36 -167 -50 -285 -167 -310 -307 -7
-38 -7 -38 26 -40 19 0 39 -2 44 -3 6 -2 24 -3 41 -4 l32 -1 -15 -51 c-8 -28
-13 -52 -11 -55 3 -2 38 -7 79 -10 41 -4 85 -8 99 -9 14 -2 32 -4 40 -5 8 -1
-8 -8 -36 -15 -172 -47 -306 -164 -330 -290 -5 -22 -9 -43 -10 -47 -1 -5 -2
-12 -3 -17 0 -5 -13 -8 -28 -6 -16 1 -27 8 -25 15 1 7 5 32 9 56 l6 44 -34 1
c-53 1 -158 7 -231 13 l-68 5 -11 -42 c-30 -114 -94 -169 -192 -169 -58 1 -64
7 -73 82 -15 116 -7 260 21 370 16 61 93 129 150 131 82 4 94 -1 99 -47 2 -16
4 -34 5 -39 1 -6 20 -9 46 -7 40 4 46 1 54 -22 10 -24 18 -65 20 -94 1 -7 4
-11 9 -9 6 4 203 17 300 20 26 1 28 19 7 96 -26 98 -64 157 -173 268 -58 58
-127 121 -154 139 -74 50 -195 85 -293 85 -200 0 -324 -48 -445 -170 -70 -71
-94 -109 -141 -226 -33 -82 -44 -280 -23 -393 28 -150 75 -232 209 -366 134
-135 202 -180 310 -207 22 -5 49 -12 60 -15 28 -7 183 -7 225 1 157 27 302
123 372 244 22 40 38 52 38 30 0 -15 181 -193 227 -223 120 -78 347 -77 468 1
22 15 53 39 70 55 18 16 41 28 58 28 23 0 27 -4 28 -30 1 -16 3 -34 4 -40 1
-5 3 -19 4 -30 1 -19 8 -20 180 -20 l180 0 -9 28 c-4 15 -11 42 -14 60 l-6 32
54 0 53 0 -1 -39 c-1 -25 -9 -49 -23 -65 -46 -52 -67 -166 -53 -279 4 -26 3
-50 0 -52 -4 -3 -6 -17 -4 -31 2 -23 -16 -65 -36 -84 -10 -10 -30 -77 -30
-101 0 -13 -10 -35 -22 -49 -24 -26 -32 -52 -33 -107 0 -18 -3 -33 -7 -33 -5
0 -8 -6 -8 -14 0 -7 -7 -19 -15 -26 -8 -7 -13 -16 -10 -20 3 -4 -1 -13 -8 -18
-7 -6 -14 -28 -15 -49 -2 -21 -14 -54 -27 -74 -14 -19 -25 -39 -25 -45 0 -5
-13 -35 -29 -67 -20 -41 -27 -70 -26 -102 2 -32 -2 -48 -16 -61 -22 -20 -37
-63 -43 -122 -3 -29 -11 -48 -24 -58 -25 -17 -23 -75 4 -105 17 -19 21 -35 23
-95 2 -41 107 -124 181 -142 46 -11 71 -14 122 -16 72 -3 99 -17 169 -86 53
-53 89 -108 89 -137 0 -7 4 -13 8 -13 14 0 7 -53 -12 -92 -12 -23 -16 -43 -11
-55 5 -10 7 -22 6 -27 -1 -4 4 -15 11 -24 18 -21 17 -74 -2 -90 -13 -12 -13
-12 0 -6 13 7 13 5 1 -9 -7 -9 -10 -17 -5 -17 5 0 3 -4 -4 -8 -15 -10 -33 -68
-24 -77 10 -10 30 -95 22 -95 -15 0 -19 -41 -5 -46 7 -3 12 -14 10 -25 -2 -10
1 -18 7 -16 10 2 15 -11 22 -60 1 -12 7 -28 13 -35 5 -7 9 -25 8 -40 -1 -16 1
-28 5 -28 7 0 12 -51 13 -117 0 -24 3 -43 7 -43 4 0 6 -14 5 -31 -1 -16 4 -51
12 -77 8 -26 16 -54 17 -62 2 -8 6 -26 10 -39 6 -18 4 -28 -10 -38 -25 -18
-64 -17 -64 3 0 8 -4 12 -10 9 -5 -3 -7 0 -4 8 3 8 -7 25 -22 38 -14 13 -40
39 -58 56 -17 18 -36 33 -43 33 -7 0 -17 9 -23 20 -6 11 -17 20 -25 20 -8 0
-15 4 -15 8 0 8 -67 45 -84 46 -20 2 -17 26 3 26 12 0 24 7 27 15 4 8 10 13
14 10 12 -7 70 53 71 73 0 9 2 27 3 39 2 13 -1 23 -6 23 -5 0 -8 6 -6 13 2 6
-17 32 -41 57 -25 25 -41 38 -37 30 4 -9 2 -8 -7 3 -8 9 -19 17 -26 17 -6 0
-11 5 -11 11 0 5 -4 8 -9 4 -5 -3 -13 0 -16 6 -4 5 -13 8 -20 5 -8 -3 -15 -1
-17 5 -3 9 -55 20 -118 23 -47 2 -113 -12 -122 -27 -6 -9 -8 -9 -8 0 0 8 -9 7
-30 -3 -16 -9 -30 -19 -30 -24 0 -5 -7 -7 -15 -4 -8 4 -15 1 -15 -5 0 -6 -11
-16 -25 -23 -13 -6 -22 -14 -20 -18 3 -4 -5 -10 -16 -13 -12 -3 -19 -10 -16
-15 3 -4 -3 -14 -13 -22 -10 -8 -17 -17 -14 -21 2 -4 0 -19 -6 -33 -6 -16 -6
-26 0 -26 5 0 7 -6 4 -14 -3 -7 1 -20 8 -28 7 -7 19 -24 26 -36 11 -20 10 -23
-15 -34 -16 -6 -32 -10 -37 -9 -4 1 -13 -2 -20 -7 -6 -5 -22 -9 -36 -11 -34
-3 -64 -8 -67 -11 -2 -1 -6 -3 -10 -4 -34 -7 -94 -58 -107 -91 -6 -13 -10 -16
-13 -7 -6 16 -43 -24 -43 -46 0 -9 -3 -12 -7 -9 -4 4 -18 -12 -32 -35 -15 -24
-43 -60 -64 -81 -20 -21 -35 -43 -32 -48 4 -5 2 -9 -2 -9 -12 0 -41 -59 -48
-95 -13 -66 -17 -80 -25 -90 -4 -5 -7 -31 -7 -58 1 -26 -1 -47 -4 -47 -15 0
-3 -41 44 -138 11 -23 20 -49 20 -57 0 -8 5 -15 10 -15 5 0 7 -7 3 -15 -3 -8
-1 -15 4 -15 5 0 12 -10 15 -22 14 -49 37 -88 50 -88 8 0 15 -5 15 -12 0 -6 3
-8 6 -5 10 10 42 -31 71 -88 31 -60 26 -55 52 -60 11 -2 31 -15 43 -29 13 -14
30 -27 38 -28 8 -2 18 -7 22 -12 4 -6 16 -5 32 2 16 7 27 8 31 1 4 -5 10 -7
14 -4 20 12 70 -55 72 -97 1 -29 69 -89 105 -93 14 -1 29 -7 33 -12 3 -5 23
-9 44 -8 20 1 37 -1 37 -5 0 -5 72 1 95 8 3 1 19 2 36 2 19 0 28 4 23 11 -4 8
-1 8 12 2 23 -10 41 -9 75 4 37 16 73 5 93 -28 9 -16 25 -30 34 -31 27 -2 35
-4 67 -18 17 -7 44 -15 60 -17 17 -2 48 -9 70 -16 22 -7 56 -12 75 -11 65 4
134 15 145 23 23 18 68 18 106 -1 22 -10 66 -20 97 -21 31 -1 63 -6 71 -11 10
-7 12 -6 6 4 -6 9 -4 11 5 5 12 -7 42 -14 78 -17 6 -1 12 -5 12 -10 0 -5 9 -4
19 2 11 5 22 6 25 2 6 -10 42 -9 52 1 4 4 13 2 21 -4 7 -6 13 -7 13 -2 0 5 7
10 15 10 8 0 15 -3 15 -6 0 -3 73 -7 163 -8 145 -1 232 -6 307 -17 14 -2 33 1
42 5 10 5 19 5 22 0 3 -5 28 -8 56 -7 27 1 50 -2 50 -5 0 -4 14 -10 30 -14 22
-5 39 -1 58 11 15 10 30 17 34 16 5 -1 8 2 8 8 0 5 6 7 14 4 8 -3 17 -1 21 5
3 6 16 11 29 11 16 0 26 -9 36 -34 7 -18 22 -40 33 -47 11 -8 27 -22 35 -31 9
-9 19 -15 24 -12 4 3 8 1 8 -4 0 -10 291 -9 328 2 12 3 31 8 41 10 11 3 29 14
40 25 19 19 57 19 45 0 -3 -5 8 -9 24 -9 16 0 32 -3 36 -7 3 -4 14 -8 24 -9 9
-1 42 -5 72 -9 46 -7 128 -8 265 -6 11 1 35 1 53 1 19 1 45 8 58 17 13 8 24
13 24 10 0 -10 74 65 109 110 37 49 71 57 71 18 0 -16 6 -25 15 -25 18 0 51
-31 78 -73 9 -15 22 -27 28 -27 5 0 23 -9 38 -21 16 -12 39 -21 52 -21 41 -1
99 6 99 12 0 8 96 4 111 -6 7 -4 27 -9 44 -10 16 -1 30 -2 30 -3 0 -2 12 -4
28 -5 15 -1 27 2 27 7 0 6 5 6 13 0 6 -5 23 -8 37 -6 25 3 39 4 63 2 25 -2
123 12 158 23 21 6 43 21 49 34 7 13 17 21 22 18 4 -3 8 0 8 7 0 6 10 20 23
31 27 24 77 51 77 42 0 -4 6 -1 13 5 8 6 17 8 21 4 4 -4 17 -8 29 -10 48 -5
62 -8 68 -16 4 -5 25 -10 48 -10 22 -1 41 -6 41 -12 0 -5 5 -3 10 5 5 8 10 10
10 5 0 -6 9 -11 20 -11 11 0 20 5 20 10 0 6 5 5 12 -2 8 -8 17 -8 31 -1 15 9
18 8 11 -3 -6 -11 -5 -11 9 1 9 7 17 9 17 4 0 -10 54 -8 71 2 5 4 9 1 9 -5 0
-6 5 -8 11 -4 7 4 28 8 47 10 20 2 38 7 41 11 7 9 28 16 54 17 9 0 17 4 17 9
0 4 5 5 10 2 6 -3 10 -1 10 4 0 6 3 10 8 9 18 -4 97 16 110 28 7 8 17 12 22 9
4 -3 11 2 14 11 3 8 10 12 16 9 5 -3 10 -2 10 3 0 6 12 15 28 21 27 10 83 41
92 52 8 9 67 3 99 -11 20 -8 37 -27 53 -61 14 -31 29 -49 41 -49 9 0 17 -4 17
-10 0 -5 8 -10 18 -10 10 0 23 -5 29 -11 7 -7 27 -13 45 -14 18 -2 49 -7 68
-12 19 -6 45 -8 58 -7 13 2 22 -1 22 -9 0 -7 3 -8 8 -2 9 13 72 13 72 0 0 -5
5 -3 10 5 5 8 10 10 10 4 0 -13 58 -13 77 -1 6 4 14 3 17 -1 4 -7 51 -9 51 -2
0 1 12 4 27 6 15 3 37 10 50 17 60 34 88 53 88 60 0 5 5 5 10 2 6 -3 10 -1 10
4 0 6 7 11 15 11 8 0 15 3 15 8 0 9 47 64 54 63 3 -1 7 -1 9 0 44 13 97 17 97
7 0 -5 4 -7 9 -3 5 3 17 -2 25 -11 13 -12 33 -15 91 -12 41 2 75 5 75 8 0 8
74 5 88 -4 6 -3 13 -2 16 2 6 10 77 9 93 -1 6 -4 13 -3 15 3 1 5 35 10 73 10
75 1 101 -2 152 -18 20 -7 35 -7 39 -1 3 5 9 7 14 4 5 -3 11 -1 15 5 4 6 11 8
16 5 5 -4 9 0 9 9 0 8 4 16 9 18 5 2 11 9 13 17 2 8 15 27 31 43 15 15 27 32
27 37 0 5 9 12 19 16 11 3 24 19 30 35 5 17 16 30 24 30 22 0 40 45 41 105 1
30 4 55 9 55 4 0 7 9 7 21 0 11 5 29 11 40 6 11 10 46 9 77 -1 31 -1 69 0 84
0 15 -4 29 -10 33 -5 3 -10 15 -10 25 0 11 -9 27 -19 37 -17 16 -35 96 -33
145 0 9 -6 19 -14 22 -8 3 -14 12 -14 21 0 8 -4 15 -10 15 -5 0 -10 5 -10 10
0 16 -40 51 -50 45 -6 -4 -8 7 -6 25 2 17 0 33 -5 36 -5 3 -9 -1 -9 -9 0 -23
-27 -16 -39 10 -7 15 -7 22 -1 18 5 -3 10 1 10 9 0 9 -4 15 -8 14 -4 -2 -22
11 -39 29 -17 17 -39 30 -49 29 -10 -2 -23 6 -29 17 -5 10 -27 25 -47 32 -21
7 -35 8 -32 3 4 -6 -3 -5 -14 1 -26 14 -34 38 -27 85 4 20 1 53 -6 74 -7 20
-12 41 -11 45 1 5 -2 6 -7 3 -5 -3 -11 4 -15 17 -9 37 -97 122 -153 148 l-52
24 -1 144 0 143 66 82 c37 44 73 87 80 95 14 15 14 14 159 -296 37 -81 39 -83
74 -83 34 -1 37 -4 63 -60 l27 -60 205 0 204 0 -22 42 c-42 80 -43 78 25 78
60 0 60 0 59 -27 -1 -16 -2 -43 -1 -60 l1 -33 194 0 193 0 -1 192 -1 192 -60
1 -60 0 -1 46 c-1 78 10 74 -195 73 -101 -1 -187 -2 -190 -3 -3 0 -5 -82 -5
-181 1 -98 -2 -176 -6 -172 -7 7 -108 209 -270 540 l-69 143 175 209 c97 115
176 211 176 214 0 2 -49 3 -109 3 l-108 -2 26 35 c14 19 28 37 31 40 3 3 13
15 24 27 l18 22 -179 0 c-171 1 -179 0 -197 -21 -10 -12 -44 -51 -75 -88 -31
-36 -99 -117 -151 -178 l-95 -112 -3 359 -2 360 -63 3 -62 3 0 55 0 55 -182 3
-183 2 0 -452 c-1 -447 -1 -452 -19 -407 -28 72 -70 126 -189 240 -108 104
-179 150 -272 177 -120 35 -282 30 -405 -12 -42 -15 -62 -12 -47 7 5 7 10 19
10 27 2 37 9 88 15 97 3 5 7 30 8 56 2 26 7 47 11 47 5 0 7 3 5 8 -5 6 1 53
18 142 7 36 13 75 20 120 2 14 11 60 19 104 9 43 18 92 20 110 2 17 7 38 10
46 3 8 8 31 11 50 3 19 8 46 10 60 3 14 7 39 10 55 2 17 4 30 5 30 2 0 7 21
14 65 3 19 11 55 16 80 5 25 12 59 14 75 3 17 7 41 11 55 3 14 6 40 7 58 1 18
5 35 9 38 4 2 6 13 4 24 -2 11 -1 20 3 20 5 0 8 12 9 28 1 26 6 56 18 112 3
14 10 48 15 75 10 52 17 80 20 80 2 0 11 56 13 85 1 14 6 31 10 38 5 6 6 12 2
12 -3 0 -1 8 4 18 6 12 23 19 53 21 140 9 233 17 233 21 0 1 14 4 30 6 53 6
90 12 90 14 0 2 9 4 20 6 68 10 215 52 229 65 5 4 15 5 22 2 8 -3 14 1 14 8 0
7 3 10 6 6 6 -6 154 55 192 79 12 8 22 11 22 8 0 -4 8 -1 18 7 9 8 38 26 65
39 26 13 47 28 47 33 0 6 3 7 6 4 6 -5 88 54 193 138 51 41 251 244 251 254 0
6 4 11 8 11 5 0 30 29 56 65 26 36 54 72 62 80 8 7 14 18 14 24 0 6 4 11 8 11
9 0 29 37 30 54 0 5 5 12 10 15 14 9 93 143 87 149 -2 3 5 15 18 27 12 11 23
26 24 32 1 6 15 37 30 69 15 33 26 62 25 67 -1 4 3 7 8 7 5 0 9 3 8 8 -1 6 13
43 42 107 11 25 20 57 19 69 0 5 4 12 10 15 5 4 12 18 15 33 2 14 9 35 15 46
6 11 7 22 4 26 -3 3 -2 6 3 6 5 0 11 10 12 23 4 37 7 51 16 65 4 7 5 16 2 19
-3 3 -2 11 3 17 5 6 12 26 15 44 12 67 16 88 19 107 1 11 5 25 8 30 2 6 4 27
4 47 0 21 2 38 5 38 3 0 5 26 4 58 0 31 4 65 9 76 7 14 6 17 -5 10 -10 -6 -11
-5 -1 8 7 8 10 18 6 21 -9 10 -15 75 -12 150 1 15 -9 142 -11 142 -4 0 -10 45
-12 87 -2 27 -5 48 -8 48 -3 0 -7 16 -8 37 -2 20 -6 41 -9 46 -4 6 -10 27 -14
46 -4 20 -10 47 -14 61 -4 14 -8 32 -9 40 -2 8 -8 28 -15 43 -6 15 -14 40 -17
55 -4 15 -15 44 -26 65 -10 20 -16 37 -13 37 4 0 -3 14 -15 30 -12 17 -19 30
-15 30 8 0 -96 194 -106 198 -5 2 -9 9 -9 16 0 7 -9 22 -20 34 -12 12 -18 22
-15 22 13 0 -149 204 -202 256 -13 12 -23 27 -23 34 0 7 -2 11 -5 9 -2 -3 -42
31 -89 75 -46 45 -103 97 -126 116 -24 19 -48 40 -55 47 -7 7 -14 10 -16 8 -2
-2 -15 12 -29 31 -14 18 -31 34 -37 34 -7 0 -13 4 -13 10 0 5 -15 17 -32 26
-18 9 -35 20 -38 24 -3 3 -25 17 -50 31 -25 13 -50 31 -57 39 -7 8 -13 11 -13
7 0 -5 -13 1 -29 12 -16 12 -34 21 -40 21 -6 0 -29 11 -51 25 -22 14 -40 22
-40 19 0 -4 -7 -1 -15 6 -8 7 -15 9 -15 4 0 -5 -4 -4 -8 2 -4 6 -43 23 -87 38
-76 27 -87 30 -110 36 -5 1 -30 10 -55 19 -25 10 -52 17 -60 16 -8 -1 -19 2
-25 5 -10 7 -105 27 -165 35 -19 3 -51 7 -70 10 -19 3 -72 7 -116 9 -45 2 -86
6 -92 10 -5 3 -11 4 -13 2z m-4853 -3763 l-15 -28 -1 27 c0 14 6 28 13 31 19
7 20 1 3 -30z m-941 -53 c3 -14 4 -42 3 -62 -1 -34 -4 -38 -27 -39 -14 0 -33
-2 -41 -3 -8 -2 -51 -6 -94 -10 -44 -4 -83 -9 -88 -12 -13 -8 -9 24 6 54 32
61 106 99 191 98 39 0 45 -3 50 -26z m1145 -30 l25 -7 -27 -8 c-16 -4 -26 -11
-23 -15 3 -5 -4 -11 -15 -15 -11 -3 -20 -11 -20 -16 0 -6 -4 -7 -10 -4 -5 3
-10 3 -10 -2 0 -4 -15 -24 -34 -43 -18 -20 -39 -52 -47 -73 -7 -20 -16 -37
-21 -37 -4 0 -5 -6 -2 -14 3 -8 0 -17 -6 -21 -8 -5 -10 7 -6 42 12 98 48 166
110 204 33 20 46 22 86 9z m3187 -125 c24 -25 48 -45 51 -45 4 0 13 -9 20 -20
7 -11 18 -20 25 -20 7 0 18 -9 25 -21 7 -12 16 -19 18 -16 3 3 17 -6 31 -19
14 -13 38 -29 54 -36 16 -7 29 -17 29 -21 0 -5 5 -5 10 -2 6 3 10 1 10 -5 0
-6 4 -9 9 -6 5 4 11 3 13 -1 3 -7 96 -57 108 -58 3 0 15 -6 26 -13 12 -6 24
-8 28 -5 3 3 6 1 6 -5 0 -7 3 -11 8 -10 4 0 14 -1 22 -5 38 -15 96 -31 103
-29 4 1 17 -3 28 -9 23 -12 58 -20 105 -23 16 -1 34 -5 40 -7 13 -8 67 -12
166 -13 l86 -1 -5 -30 c-3 -16 -10 -36 -16 -42 -6 -9 -6 -13 1 -13 7 0 8 -9 2
-27 -5 -16 -12 -48 -15 -73 -3 -25 -8 -58 -10 -75 -3 -16 -6 -42 -7 -57 -1
-16 -5 -28 -8 -28 -3 0 -6 -15 -7 -32 -2 -34 -7 -70 -21 -149 -5 -26 -8 -56
-7 -68 1 -11 -2 -21 -6 -21 -4 0 -8 -15 -8 -32 -1 -33 -8 -83 -11 -83 -1 0 -3
-12 -5 -26 -2 -15 -6 -44 -10 -65 -4 -22 -9 -55 -10 -74 -2 -19 -4 -35 -5 -35
-2 0 -4 -11 -5 -25 -1 -14 -5 -41 -9 -60 -4 -19 -9 -48 -10 -65 -2 -16 -6 -37
-9 -45 -3 -8 -11 -55 -18 -105 -7 -49 -14 -97 -16 -105 -2 -8 -6 -31 -8 -50
-3 -19 -8 -46 -11 -60 -7 -26 -14 -77 -18 -120 -1 -14 -5 -30 -9 -37 -4 -6 -7
-24 -7 -40 0 -45 -6 -92 -13 -99 -4 -4 -7 -1 -8 7 -1 30 -16 132 -19 137 -2 1
-4 11 -5 22 -1 11 -3 21 -5 23 -1 1 -3 13 -4 25 -2 13 -8 27 -15 31 -20 13
-42 61 -28 61 8 0 7 3 -2 9 -17 11 -21 51 -7 70 8 11 8 13 -1 7 -8 -4 -13 -1
-13 8 0 27 -23 66 -34 59 -6 -4 -5 1 3 10 8 10 9 17 3 17 -6 0 -16 16 -23 35
-7 19 -17 35 -22 35 -4 0 -6 4 -2 9 3 5 1 12 -4 15 -5 3 -7 19 -6 36 1 16 -2
30 -7 30 -5 0 -6 5 -3 10 4 6 -1 22 -10 36 -9 14 -14 28 -11 31 3 4 1 12 -6
20 -6 7 -8 16 -5 19 7 8 -13 65 -22 60 -4 -3 -8 5 -8 16 -1 12 -8 25 -15 29
-10 7 -10 9 2 9 13 0 13 2 1 9 -8 5 -15 27 -15 53 -1 23 -5 49 -10 57 -6 10
-5 12 2 7 7 -4 12 -2 12 3 0 6 -4 11 -10 11 -5 0 -10 6 -10 14 0 7 -10 26 -22
41 -12 15 -23 37 -24 49 -1 11 -3 21 -4 21 -1 0 -3 9 -5 19 -2 10 -8 22 -13
25 -5 3 -17 23 -25 44 -9 20 -22 37 -29 37 -9 0 -9 3 2 10 13 8 12 10 -2 10
-11 0 -18 8 -18 20 0 12 -7 20 -16 20 -10 0 -14 6 -10 15 3 8 2 15 -2 15 -5 0
-14 16 -21 35 -7 19 -17 33 -22 30 -5 -3 -6 0 -3 8 3 9 -3 17 -19 21 -22 5
-46 46 -27 46 7 0 16 30 27 95 9 49 9 91 0 103 -5 6 -6 12 -2 12 4 0 2 7 -5
15 -7 9 -10 18 -6 22 3 4 -4 17 -16 30 -12 13 -18 23 -13 23 4 0 -3 9 -16 21
-13 11 -36 31 -50 44 -20 18 -90 60 -117 71 -7 3 -10 64 -3 64 14 0 4 115 -13
148 -9 17 -14 32 -10 32 3 0 26 -20 51 -45z m-4338 -306 c-27 -117 -114 -199
-214 -199 l-36 0 2 45 c3 54 25 93 72 129 36 28 127 64 163 65 20 1 21 -2 13
-40z m26 -252 c5 -26 -18 -48 -62 -59 -21 -6 -19 -1 15 42 20 26 38 47 40 45
2 -1 5 -14 7 -28z m5045 -1647 c0 -11 -3 -20 -7 -20 -5 0 -9 -17 -10 -38 -1
-20 -3 -52 -3 -69 -1 -18 -6 -33 -11 -33 -4 0 -6 -8 -2 -17 4 -12 0 -11 -11 5
-12 15 -15 29 -10 45 5 12 8 24 9 27 0 3 5 23 10 45 9 39 11 52 14 68 2 16 21
5 21 -13z m890 -417 c8 -7 17 -47 19 -81 1 -10 13 -13 46 -9 52 5 61 -4 73
-76 l8 -42 59 1 c33 1 106 4 163 7 l102 5 0 -163 0 -164 -57 5 c-32 3 -59 7
-61 9 -2 2 1 26 6 54 5 28 7 51 3 52 -13 2 -82 7 -208 14 l-132 7 -11 -43
c-15 -57 -45 -110 -75 -131 -23 -18 -24 -18 -19 8 3 15 1 23 -5 20 -5 -4 -12
-2 -15 3 -4 5 -1 13 5 17 9 5 7 11 -5 20 -10 7 -17 15 -17 18 3 20 -1 26 -15
26 -8 0 -13 3 -11 8 3 6 -39 53 -46 51 -1 -1 -19 7 -41 17 l-39 19 6 78 c12
152 59 242 143 270 41 15 110 15 124 0z m533 -873 l63 0 0 -57 c-1 -56 0 -58
29 -64 17 -4 23 -7 13 -8 -9 0 -27 -14 -41 -30 -14 -17 -28 -27 -31 -24 -3 4
-6 1 -6 -5 0 -21 -51 -71 -66 -65 -8 3 -12 9 -9 13 3 5 0 10 -5 12 -6 2 -12
10 -14 18 -4 24 -45 106 -46 91 0 -11 -3 -11 -15 -1 -9 7 -13 21 -10 31 4 11
2 19 -4 19 -6 0 -10 3 -9 8 3 15 -15 62 -22 57 -5 -3 -10 0 -12 7 -3 7 15 39
39 71 23 33 51 81 60 109 l18 49 3 -115 3 -116 62 0z m-1757 158 c-1 -24 -8
-36 -28 -47 -41 -23 -44 -7 -7 38 18 23 33 41 34 41 1 0 2 -14 1 -32z m127
-171 c3 -8 1 -20 -3 -27 -5 -7 -7 -21 -5 -31 3 -12 -1 -16 -11 -12 -8 3 -25
-2 -39 -11 -14 -9 -25 -13 -25 -9 0 3 -11 -4 -25 -17 -14 -13 -25 -20 -25 -16
0 4 -12 -7 -27 -25 -16 -18 -26 -33 -23 -34 3 0 -5 -11 -17 -25 -13 -13 -23
-29 -23 -35 0 -14 -30 -75 -36 -75 -3 0 -3 13 0 30 2 16 1 32 -2 34 -4 2 -6
19 -5 38 1 18 2 47 2 64 1 27 7 34 44 50 43 19 141 85 152 104 9 15 62 12 68
-3z"/>
</g>
</svg>
